<svg width="64" height="64" viewBox="0 0 64 64" fill="none" xmlns="http://www.w3.org/2000/svg">
<path d="M19.3334 32C19.3334 31.4696 19.5441 30.9609 19.9192 30.5858C20.2942 30.2107 20.8029 30 21.3334 30H42.6667C43.1971 30 43.7059 30.2107 44.0809 30.5858C44.456 30.9609 44.6667 31.4696 44.6667 32C44.6667 32.5304 44.456 33.0391 44.0809 33.4142C43.7059 33.7893 43.1971 34 42.6667 34H21.3334C20.8029 34 20.2942 33.7893 19.9192 33.4142C19.5441 33.0391 19.3334 32.5304 19.3334 32ZM26.6667 38C26.1363 38 25.6276 38.2107 25.2525 38.5858C24.8774 38.9609 24.6667 39.4696 24.6667 40C24.6667 40.5304 24.8774 41.0391 25.2525 41.4142C25.6276 41.7893 26.1363 42 26.6667 42H37.3334C37.8638 42 38.3725 41.7893 38.7476 41.4142C39.1227 41.0391 39.3334 40.5304 39.3334 40C39.3334 39.4696 39.1227 38.9609 38.7476 38.5858C38.3725 38.2107 37.8638 38 37.3334 38H26.6667Z" fill="black"/>
<path fill-rule="evenodd" clip-rule="evenodd" d="M39.1066 6.21333C39.5808 5.97623 40.1298 5.93714 40.6329 6.10466C41.1359 6.27217 41.5519 6.63258 41.7893 7.10667L46.6239 16.776C47.7635 16.8311 48.8035 16.9253 49.7439 17.0587C52.5599 17.4613 54.8906 18.3307 56.5466 20.3787C58.2026 22.4267 58.5653 24.888 58.3706 27.7253C58.1839 30.4747 57.4373 33.944 56.5093 38.2773L55.3066 43.896C54.6799 46.8213 54.1706 49.192 53.5306 51.0427C52.8639 52.976 51.9839 54.5627 50.4853 55.776C48.9866 56.9893 47.2479 57.5147 45.2213 57.7627C43.2746 58 40.8479 58 37.8613 58H26.1386C23.1466 58 20.7226 58 18.7759 57.7627C16.7493 57.5147 15.0106 56.9893 13.5119 55.776C12.0133 54.5627 11.1333 52.976 10.4666 51.0453C9.82661 49.192 9.31994 46.8213 8.69061 43.8987L7.48794 38.28C6.55994 33.944 5.81594 30.4747 5.62661 27.7253C5.43194 24.888 5.79461 22.4293 7.45061 20.3787C9.10394 18.3307 11.4346 17.4613 14.2506 17.0587C15.1928 16.9271 16.2328 16.8329 17.3706 16.776L22.2133 7.10667C22.4527 6.63635 22.8683 6.27971 23.3695 6.11447C23.8707 5.94924 24.4169 5.98879 24.889 6.22452C25.3612 6.46025 25.721 6.87305 25.8902 7.37295C26.0593 7.87286 26.024 8.41935 25.7919 8.89333L21.8986 16.672C22.8693 16.6667 23.8906 16.6649 24.9626 16.6667H39.0373C40.1093 16.6667 41.1306 16.6684 42.1013 16.672L38.2106 8.89333C37.9735 8.4191 37.9344 7.87012 38.1019 7.36707C38.2695 6.86402 38.6299 6.44808 39.1039 6.21067M15.2853 20.9547L14.2106 23.104C14.0909 23.3392 14.0189 23.5958 13.9988 23.859C13.9787 24.1222 14.0109 24.3868 14.0936 24.6375C14.1762 24.8881 14.3077 25.12 14.4803 25.3196C14.653 25.5192 14.8635 25.6827 15.0996 25.8006C15.3358 25.9185 15.593 25.9885 15.8563 26.0066C16.1196 26.0246 16.3839 25.9903 16.634 25.9058C16.884 25.8212 17.1148 25.6879 17.3131 25.5137C17.5114 25.3395 17.6732 25.1277 17.7893 24.8907L19.8879 20.6933C21.4079 20.6667 23.1413 20.664 25.1253 20.664H38.8746C40.8586 20.664 42.5919 20.664 44.1119 20.6907L46.2106 24.8907C46.45 25.361 46.8656 25.7176 47.3668 25.8829C47.868 26.0481 48.4142 26.0085 48.8864 25.7728C49.3585 25.5371 49.7184 25.1243 49.8875 24.6244C50.0566 24.1245 50.0213 23.578 49.7893 23.104L48.7146 20.9547L49.1786 21.016C51.5359 21.3547 52.6906 21.9707 53.4373 22.8907C54.1839 23.8133 54.5413 25.0747 54.3786 27.4507C54.2133 29.8773 53.5359 33.0667 52.5653 37.5973L51.4186 42.9307C50.7599 46.0107 50.2986 48.1413 49.7493 49.736C49.2159 51.2827 48.6719 52.0987 47.9706 52.664C47.2719 53.2293 46.3573 53.592 44.7386 53.7893C43.0613 53.9947 40.8799 53.9973 37.7306 53.9973H26.2666C23.1199 53.9973 20.9386 53.9947 19.2613 53.7893C17.6399 53.592 16.7279 53.2293 16.0293 52.664C15.3279 52.0987 14.7813 51.28 14.2506 49.736C13.6986 48.1413 13.2373 46.0107 12.5786 42.9307L11.4346 37.5973C10.4639 33.064 9.78661 29.88 9.62128 27.4507C9.45861 25.0747 9.81861 23.8133 10.5626 22.8907C11.3093 21.9707 12.4639 21.3547 14.8213 21.016L15.2853 20.9547Z" fill="black"/>
</svg>
